<?xml version="1.0" standalone="no"?>
<!DOCTYPE svg PUBLIC "-//W3C//DTD SVG 20010904//EN"
 "http://www.w3.org/TR/2001/REC-SVG-20010904/DTD/svg10.dtd">
<svg version="1.0" xmlns="http://www.w3.org/2000/svg"
 width="900.000000pt" height="1280.000000pt" viewBox="0 0 900.000000 1280.000000"
 preserveAspectRatio="xMidYMid meet">
<metadata>
Created by potrace 1.15, written by Peter Selinger 2001-2017
</metadata>
<g transform="translate(0.000000,1280.000000) scale(0.100000,-0.100000)"
fill="#000000" stroke="none">
<path d="M8545 12776 c-33 -12 -128 -57 -210 -101 -290 -153 -512 -248 -605
-259 -96 -11 -271 -46 -420 -83 -379 -93 -389 -95 -482 -89 -148 10 -279 42
-608 148 -266 85 -511 154 -674 187 -459 95 -975 130 -1497 101 -508 -29 -840
-82 -1404 -225 -345 -88 -459 -111 -622 -127 -135 -12 -308 -2 -451 28 -157
32 -534 170 -714 260 -48 24 -133 62 -189 84 -55 22 -122 51 -149 65 -26 13
-50 22 -53 19 -19 -20 24 -146 105 -309 45 -90 292 -707 356 -891 48 -134 49
-142 35 -175 -168 -398 -241 -1081 -177 -1644 57 -505 258 -1026 540 -1404
l54 -71 -34 -48 c-18 -26 -46 -71 -62 -100 -22 -39 -37 -55 -63 -63 -46 -15
-164 -130 -234 -227 -263 -366 -616 -1161 -796 -1797 -226 -801 -249 -1475
-71 -2171 152 -598 415 -1109 770 -1502 226 -248 394 -340 610 -330 147 7 258
56 381 166 99 90 169 191 359 520 l42 74 57 -99 c161 -277 351 -554 527 -769
l82 -102 -33 -83 c-19 -46 -41 -111 -50 -144 -20 -76 -45 -237 -45 -292 0 -38
-4 -44 -32 -59 -165 -85 -361 -283 -487 -492 -129 -216 -154 -424 -56 -488 92
-60 287 15 478 186 l57 52 0 -49 c0 -71 34 -222 65 -292 31 -69 96 -135 143
-146 114 -25 240 114 312 343 l26 82 43 -67 c57 -88 192 -221 255 -252 107
-52 183 -34 226 54 95 195 -48 646 -294 928 l-65 75 9 59 c6 32 10 59 10 60 0
2 35 -20 78 -48 233 -153 531 -242 752 -225 216 18 443 95 626 214 l61 40 12
-68 11 -68 -41 -43 c-95 -103 -168 -211 -228 -339 -84 -180 -126 -351 -119
-485 10 -187 104 -259 249 -188 65 32 218 182 268 264 l35 56 31 -97 c68 -207
171 -329 280 -330 36 0 95 34 125 72 54 69 110 257 110 372 l0 48 56 -51 c190
-173 384 -251 474 -189 48 33 65 71 64 148 -2 175 -133 419 -339 626 -87 89
-253 214 -282 214 -5 0 -14 55 -21 123 -13 131 -48 280 -87 366 -14 29 -25 57
-25 62 0 5 46 62 101 126 267 310 601 804 850 1255 35 65 66 118 69 118 7 0
31 -42 131 -233 153 -288 207 -365 371 -523 146 -140 243 -184 408 -185 164
-1 313 53 486 177 85 61 131 108 213 216 107 143 193 285 300 498 241 480 389
981 453 1535 19 163 16 578 -5 750 -61 490 -181 947 -382 1455 -93 234 -153
366 -320 705 -140 283 -251 467 -346 570 -31 33 -72 90 -92 127 -21 37 -52 87
-71 111 l-33 44 54 89 c151 249 275 543 353 838 38 146 53 221 97 494 35 214
37 240 36 452 0 202 -2 239 -26 363 -34 173 -94 353 -167 504 l-57 117 38 107
c76 214 268 669 363 858 19 36 50 107 69 156 19 50 53 132 76 184 23 51 40 95
39 96 -2 2 -30 -7 -63 -19z"/>
</g>
</svg>
