<?xml version="1.0" standalone="no"?>
<!DOCTYPE svg PUBLIC "-//W3C//DTD SVG 20010904//EN"
 "http://www.w3.org/TR/2001/REC-SVG-20010904/DTD/svg10.dtd">
<svg version="1.0" xmlns="http://www.w3.org/2000/svg"
 width="747.000000pt" height="1280.000000pt" viewBox="0 0 747.000000 1280.000000"
 preserveAspectRatio="xMidYMid meet">
<metadata>
Created by potrace 1.15, written by Peter Selinger 2001-2017
</metadata>
<g transform="translate(0.000000,1280.000000) scale(0.100000,-0.100000)"
fill="#FFA500" stroke="none">
<path d="M4610 12785 c-254 -51 -465 -183 -605 -380 -23 -33 -218 -355 -432
-716 -356 -597 -406 -676 -566 -891 -152 -205 -182 -251 -225 -350 l-49 -113
51 -5 51 -5 24 -87 23 -88 47 0 47 0 19 73 c28 111 25 108 103 105 l67 -3 24
-87 25 -88 46 0 47 0 23 85 23 85 73 0 73 0 10 -37 c6 -21 15 -59 22 -85 11
-47 12 -48 50 -48 22 0 39 -3 39 -7 0 -5 7 -55 15 -113 19 -142 19 -176 -6
-227 -45 -92 -35 -229 23 -319 l30 -47 -11 -206 c-21 -381 -82 -677 -203 -991
-47 -122 -197 -431 -2534 -5222 -773 -1584 -856 -1758 -887 -1848 -140 -415
58 -879 458 -1075 440 -216 978 -40 1193 390 16 33 721 1696 1566 3695 846
1999 1569 3699 1607 3777 233 477 617 881 1319 1390 69 49 231 167 360 260
394 286 688 528 750 619 70 100 124 244 152 404 21 121 16 457 -10 615 -84
518 -290 987 -562 1278 -99 105 -190 174 -301 226 -134 63 -125 65 -132 -31
-4 -46 -7 -402 -7 -793 0 -681 -1 -711 -19 -741 -40 -66 -131 -112 -262 -133
-40 -7 -314 -11 -720 -11 l-656 0 -51 64 c-50 61 -52 66 -52 124 0 51 3 63 20
72 20 11 20 21 20 755 l0 745 -22 -1 c-13 0 -52 -7 -88 -14z m-433 -2520 c18
-71 14 -81 -6 -15 -17 54 -18 55 -61 61 l-45 7 49 -2 50 -1 13 -50z m252 48
l-66 -4 -24 -87 -24 -87 -56 -3 c-52 -3 -57 -1 -63 20 -9 34 -6 47 4 21 8 -19
17 -23 54 -23 l45 0 16 52 c8 28 15 55 15 59 0 4 4 19 10 33 9 25 13 26 82 24
l73 -2 -66 -3z m391 -3 c0 -6 -28 -10 -65 -10 l-64 0 -10 -37 c-6 -21 -16 -59
-23 -85 l-12 -48 -53 0 c-65 0 -70 18 -6 22 l46 3 19 70 c11 39 21 76 23 83 5
15 145 17 145 2z m330 0 c0 -5 -28 -10 -62 -12 l-62 -3 -21 -80 -22 -80 -56
-3 c-35 -2 -57 1 -57 8 0 5 21 10 49 10 48 0 49 1 55 34 4 19 13 57 22 85 l15
51 69 0 c39 0 70 -4 70 -10z m-819 -1182 l14 -63 72 -3 72 -3 10 38 c5 21 13
50 17 66 6 26 9 27 69 27 l64 0 15 -54 c9 -30 16 -59 16 -65 0 -7 27 -11 75
-11 48 0 75 4 75 11 0 6 7 35 16 65 l15 54 59 0 59 0 16 -52 c8 -28 15 -58 15
-65 0 -10 19 -13 73 -13 l73 0 12 38 11 37 -3 -49 c-4 -50 -24 -86 -67 -118
-23 -18 -53 -19 -499 -18 -530 0 -497 -4 -548 71 l-23 34 60 3 c41 2 61 7 61
16 0 7 7 36 15 64 l16 52 63 0 63 0 14 -62z m-3198 -7557 c186 -66 329 -197
400 -367 34 -82 49 -161 48 -263 -2 -287 -189 -530 -476 -617 -91 -28 -257
-26 -355 4 -174 54 -318 177 -394 336 -55 113 -70 176 -69 291 1 183 60 322
193 455 94 94 191 150 305 176 87 20 273 12 348 -15z"/>
</g>
</svg>
