<?xml version="1.0" standalone="no"?>
<!DOCTYPE svg PUBLIC "-//W3C//DTD SVG 20010904//EN"
 "http://www.w3.org/TR/2001/REC-SVG-20010904/DTD/svg10.dtd">
<svg version="1.0" xmlns="http://www.w3.org/2000/svg"
 width="1280.000000pt" height="1280.000000pt" viewBox="0 0 1280.000000 1280.000000"
 preserveAspectRatio="xMidYMid meet">
<metadata>
Created by potrace 1.15, written by Peter Selinger 2001-2017
</metadata>
<g transform="translate(0.000000,1280.000000) scale(0.100000,-0.100000)"
fill="#FFA500" stroke="none">
<path d="M6050 12790 c-170 -10 -396 -31 -409 -39 -7 -5 -1 -82 19 -246 20
-166 26 -241 19 -246 -6 -4 -37 -9 -68 -13 -142 -16 -394 -63 -589 -110 -76
-18 -60 -46 -132 244 -29 118 -54 217 -56 219 -17 20 -802 -238 -811 -266 -2
-6 28 -91 68 -189 39 -99 79 -200 89 -225 l19 -46 -127 -53 c-70 -30 -221
-101 -335 -158 -117 -59 -212 -101 -217 -96 -4 5 -59 100 -120 212 -62 111
-118 202 -124 202 -28 0 -478 -285 -654 -415 -44 -32 -61 -50 -54 -58 48 -61
275 -372 278 -382 3 -6 -42 -48 -98 -92 -105 -82 -245 -202 -384 -328 l-77
-70 -171 178 -172 178 -131 -133 c-165 -167 -443 -486 -443 -508 0 -3 86 -72
190 -153 105 -82 190 -153 190 -158 0 -5 -22 -37 -49 -72 -74 -95 -213 -297
-292 -423 -39 -63 -73 -114 -76 -114 -3 0 -99 57 -215 126 -115 69 -211 124
-212 122 -19 -22 -150 -265 -227 -418 -121 -244 -163 -340 -152 -350 4 -4 106
-49 226 -100 119 -51 217 -95 217 -99 0 -4 -23 -63 -51 -132 -28 -68 -84 -223
-124 -344 -51 -153 -77 -219 -87 -217 -7 1 -113 31 -236 66 -122 35 -224 60
-227 57 -27 -45 -175 -732 -175 -817 0 -20 13 -23 238 -54 130 -18 240 -36
243 -39 4 -3 3 -35 -2 -71 -17 -128 -38 -378 -45 -524 l-7 -149 -248 5 -249 5
0 -126 c0 -148 16 -445 33 -616 11 -110 14 -120 32 -118 11 1 121 14 244 29
175 21 225 24 231 14 4 -7 11 -40 15 -74 15 -138 61 -385 108 -583 l15 -63
-36 -9 c-21 -5 -127 -33 -237 -61 -110 -29 -202 -54 -204 -56 -16 -15 227
-771 259 -807 4 -4 110 33 235 83 125 50 229 90 230 88 2 -2 27 -59 56 -128
29 -69 100 -219 157 -334 77 -153 101 -210 92 -216 -7 -4 -104 -58 -216 -120
l-203 -113 15 -29 c57 -110 302 -491 408 -636 l46 -62 199 150 199 149 110
-137 c60 -75 149 -181 198 -236 49 -54 109 -120 132 -147 l44 -49 -177 -172
-176 -171 103 -104 c180 -182 521 -478 539 -468 4 3 71 87 150 188 78 100 145
186 149 190 4 4 21 -3 37 -17 62 -52 327 -237 453 -317 114 -72 128 -84 119
-100 -5 -10 -61 -105 -124 -209 -63 -105 -115 -194 -115 -198 0 -22 636 -351
745 -386 19 -5 30 16 115 215 52 122 99 223 105 225 5 2 71 -21 145 -51 74
-30 227 -85 340 -121 113 -37 207 -68 208 -70 2 -1 -26 -106 -62 -233 -36
-127 -66 -234 -66 -239 0 -11 365 -101 545 -136 221 -42 286 -50 294 -38 3 6
21 115 39 244 19 128 35 234 36 236 2 1 36 -2 77 -8 120 -18 353 -38 516 -45
l153 -8 -7 -248 -6 -249 139 0 c268 1 713 35 720 55 3 6 -8 117 -24 246 -16
129 -28 235 -26 237 1 2 46 10 100 18 218 32 383 63 571 107 l61 15 59 -235
c32 -130 63 -238 70 -240 26 -10 481 130 718 221 57 22 89 40 87 48 -2 7 -41
109 -87 226 -47 116 -85 216 -85 220 0 5 57 33 128 62 70 29 219 100 332 156
158 80 208 100 216 91 6 -7 59 -100 118 -207 60 -107 111 -198 114 -202 22
-22 719 430 716 464 -1 8 -62 95 -136 194 -74 98 -137 184 -141 190 -4 7 47
55 131 121 75 61 186 155 246 209 60 54 126 114 147 132 l37 32 171 -177 171
-178 106 105 c122 122 287 304 398 440 60 74 74 97 63 105 -183 138 -376 299
-370 308 4 7 28 39 54 72 73 94 213 297 290 421 l70 112 214 -128 215 -129 80
142 c120 212 315 612 305 627 -2 3 -103 48 -224 100 -122 51 -221 98 -221 104
0 6 25 72 55 146 30 74 85 227 121 340 37 113 68 206 69 207 1 2 103 -26 228
-62 124 -36 233 -65 240 -65 28 0 208 813 185 835 -2 3 -111 20 -242 39 -131
19 -240 36 -242 39 -2 2 2 53 10 113 17 127 32 305 42 491 l7 133 248 0 249 0
0 133 c0 213 -33 702 -49 719 -3 4 -114 -6 -246 -22 -131 -16 -241 -27 -243
-26 -2 2 -10 48 -18 102 -33 226 -72 430 -107 567 -12 43 -12 59 -4 63 7 2
111 29 232 59 121 31 225 57 231 60 8 2 -2 54 -32 157 -82 294 -220 682 -238
675 -6 -3 -109 -44 -229 -92 -123 -49 -222 -84 -227 -79 -4 5 -29 61 -56 124
-26 63 -96 210 -154 327 l-107 212 213 118 c117 65 214 123 214 128 1 34 -422
686 -460 710 -5 3 -96 -60 -203 -140 -107 -80 -196 -145 -199 -145 -3 0 -27
28 -53 63 -85 108 -228 278 -332 391 l-100 109 177 173 177 174 -136 133
c-189 186 -478 437 -502 437 -4 0 -72 -82 -150 -182 -78 -101 -146 -187 -151
-192 -5 -6 -21 0 -40 14 -134 100 -339 242 -448 311 -71 45 -130 85 -130 89 0
5 56 102 124 216 l125 208 -67 39 c-201 117 -620 326 -685 342 -20 5 -29 -11
-117 -220 -52 -124 -97 -225 -100 -225 -4 0 -62 23 -131 51 -129 53 -529 189
-554 189 -8 0 -15 2 -15 5 0 3 29 108 65 233 36 125 65 232 65 238 0 13 -124
48 -351 99 -178 40 -475 92 -483 84 -3 -3 -21 -112 -40 -243 -20 -131 -37
-240 -38 -241 -2 -1 -32 1 -68 6 -132 17 -379 38 -522 45 l-148 7 0 248 0 249
-157 -2 c-87 0 -214 -4 -283 -8z m680 -1310 c1122 -79 2157 -505 3010 -1240
112 -96 384 -365 471 -465 251 -288 436 -549 621 -874 33 -56 58 -104 56 -105
-6 -5 -3613 -1445 -3626 -1448 -9 -2 -48 84 -116 253 -57 141 -106 261 -109
267 -5 6 -98 -26 -257 -90 -138 -55 -252 -99 -254 -97 -6 6 -1444 3601 -1448
3619 -3 16 20 23 227 70 231 52 455 85 745 109 140 12 514 12 680 1z m-2030
-2419 c398 -995 724 -1813 724 -1818 0 -4 -111 -53 -247 -108 -137 -55 -249
-103 -250 -106 -1 -3 45 -123 102 -267 58 -144 102 -264 99 -267 -6 -7 -3618
-1455 -3627 -1455 -9 0 -64 221 -95 380 -109 546 -125 1138 -45 1695 107 755
386 1479 814 2120 205 306 391 530 662 795 256 252 470 426 754 613 130 86
365 227 380 227 3 0 331 -814 729 -1809z m6644 -1448 c113 -504 140 -735 141
-1203 0 -339 -7 -449 -45 -720 -157 -1108 -676 -2136 -1466 -2911 -268 -262
-458 -418 -739 -606 -170 -114 -401 -250 -410 -242 -4 5 -1444 3606 -1448
3621 -1 6 96 50 218 99 121 49 234 95 252 103 l32 15 -95 237 c-52 130 -94
237 -92 239 12 9 3606 1443 3619 1444 12 1 20 -18 33 -76z m-4696 -302 c160
-46 305 -132 418 -245 64 -65 141 -163 132 -170 -1 -2 -159 -65 -351 -141
-215 -86 -351 -135 -356 -129 -9 8 -267 647 -278 686 -7 23 29 27 212 23 116
-2 167 -8 223 -24z m-604 -461 c86 -216 136 -354 130 -359 -17 -17 -695 -283
-702 -276 -4 4 -7 84 -7 178 0 148 3 183 23 250 59 207 180 386 340 507 37 27
69 50 72 50 3 0 68 -158 144 -350z m1292 -327 c11 -103 -2 -288 -26 -371 -45
-158 -130 -305 -244 -418 -65 -64 -163 -141 -170 -132 -12 15 -276 693 -273
701 3 11 667 284 694 286 7 1 14 -25 19 -66z m-883 -696 c77 -191 136 -351
132 -355 -3 -4 -84 -7 -178 -7 -148 0 -183 3 -250 23 -164 47 -309 131 -423
246 -64 65 -141 163 -132 170 15 12 686 275 697 273 10 -1 67 -133 154 -350z
m-792 -644 c45 -115 88 -220 95 -235 l14 -26 250 100 c138 55 252 99 254 97 6
-6 1444 -3601 1448 -3619 2 -10 -21 -20 -87 -37 -483 -125 -1061 -178 -1565
-143 -1118 78 -2155 505 -3010 1239 -235 202 -538 527 -732 786 -137 183 -378
560 -378 591 0 12 3579 1451 3611 1453 13 1 38 -51 100 -206z"/>
</g>
</svg>
